<svg width="27" height="46" viewBox="0 0 27 46" fill="none" xmlns="http://www.w3.org/2000/svg">
<path d="M2.144 46V43.312H6.432C7.88267 43.312 9.12 43.056 10.144 42.544C11.168 41.9893 11.68 40.7093 11.68 38.704V5.104C10.0587 7.06666 8.58667 8.66666 7.264 9.904C5.984 11.1413 4.704 11.76 3.424 11.76C2.48533 11.76 1.71733 11.44 1.12 10.8C0.522667 10.16 0.224 9.328 0.224 8.304C1.504 7.96267 2.848 7.45067 4.256 6.768C5.70667 6.08533 7.47733 4.95467 9.568 3.376L14.048 0.0479965H18.144V38.704C18.144 40.7093 18.656 41.9893 19.68 42.544C20.704 43.056 21.9413 43.312 23.392 43.312H26.528V46H2.144Z" fill="black" fill-opacity="0.5"/>
</svg>
