<svg width="29" height="47" viewBox="0 0 29 47" fill="none" xmlns="http://www.w3.org/2000/svg">
<path d="M0.264 47V42.328L10.952 29.976C13.2133 27.3307 15.0053 25.048 16.328 23.128C17.6507 21.1653 18.5893 19.3093 19.144 17.56C19.7413 15.8107 20.04 13.9547 20.04 11.992C20.04 9.56 19.5067 7.59733 18.44 6.104C17.416 4.61066 15.7733 3.864 13.512 3.864C11.592 3.864 10.12 4.312 9.096 5.208C8.072 6.104 7.368 7.27733 6.984 8.728C6.64267 10.136 6.472 11.6933 6.472 13.4C4.936 13.4 3.63467 13.1227 2.568 12.568C1.50133 11.9707 0.968 10.8613 0.968 9.24C0.968 6.76533 2.01333 4.71733 4.104 3.096C6.23733 1.47466 9.37333 0.663998 13.512 0.663998C17.5653 0.663998 20.744 1.64533 23.048 3.608C25.352 5.528 26.504 8.10933 26.504 11.352C26.504 14.3387 25.5653 17.2613 23.688 20.12C21.8107 22.936 19.1867 26.2 15.816 29.912L5 41.88H19.784C21.704 41.88 23.0053 41.3893 23.688 40.408C24.3707 39.4267 24.8613 38.3173 25.16 37.08L25.416 35.928H28.104L27.784 47H0.264Z" fill="black" fill-opacity="0.5"/>
</svg>
