<svg width="30" height="48" viewBox="0 0 30 48" fill="none" xmlns="http://www.w3.org/2000/svg">
<path d="M12.808 47.64C8.584 47.64 5.512 46.936 3.592 45.528C1.672 44.0773 0.712 42.4133 0.712 40.536C0.712 39.256 1.07467 38.2533 1.8 37.528C2.568 36.8027 3.54933 36.44 4.744 36.44C4.744 38.6587 5.448 40.5147 6.856 42.008C8.264 43.4587 10.2693 44.184 12.872 44.184C14.5787 44.184 16.136 43.864 17.544 43.224C18.9947 42.5413 20.168 41.4533 21.064 39.96C21.96 38.4667 22.408 36.44 22.408 33.88C22.408 31.192 21.3627 29.0373 19.272 27.416C17.224 25.7947 14.408 24.984 10.824 24.984H8.776V21.72H10.824C12.7013 21.72 14.3867 21.3147 15.88 20.504C17.416 19.6933 18.632 18.5413 19.528 17.048C20.424 15.5547 20.872 13.8053 20.872 11.8C20.872 9.28267 20.3387 7.34133 19.272 5.976C18.248 4.568 16.4987 3.864 14.024 3.864C12.104 3.864 10.632 4.312 9.608 5.208C8.584 6.104 7.88 7.27733 7.496 8.728C7.15467 10.136 6.984 11.6933 6.984 13.4C5.448 13.4 4.14667 13.1227 3.08 12.568C2.01333 11.9707 1.48 10.8613 1.48 9.24C1.48 6.76533 2.52533 4.71733 4.616 3.096C6.74933 1.47466 9.88533 0.663998 14.024 0.663998C18.0773 0.663998 21.32 1.56 23.752 3.352C26.2267 5.10133 27.464 7.59733 27.464 10.84C27.464 12.76 27.016 14.5307 26.12 16.152C25.224 17.7307 24.008 19.096 22.472 20.248C20.936 21.3573 19.1867 22.1467 17.224 22.616C18.4187 22.744 19.6987 23.0213 21.064 23.448C22.4293 23.832 23.7093 24.4507 24.904 25.304C26.1413 26.1573 27.144 27.288 27.912 28.696C28.68 30.0613 29.064 31.8107 29.064 33.944C29.064 36.504 28.5733 38.68 27.592 40.472C26.6107 42.2213 25.3093 43.6293 23.688 44.696C22.0667 45.72 20.296 46.4667 18.376 46.936C16.4987 47.4053 14.6427 47.64 12.808 47.64Z" fill="black" fill-opacity="0.5"/>
</svg>
