<svg width="34" height="46" viewBox="0 0 34 46" fill="none" xmlns="http://www.w3.org/2000/svg">
<path d="M12.76 46V43.312H14.552C16.0027 43.312 17.24 43.056 18.264 42.544C19.288 41.9893 19.8 40.7093 19.8 38.704V33.456H0.0880001V30.832L19.864 0.303997H25.944V29.872H33.88V33.456H25.944V38.704C25.944 40.7093 26.456 41.9893 27.48 42.544C28.504 43.056 29.7413 43.312 31.192 43.312H32.024V46H12.76ZM4.696 29.872H19.8V18.032C19.8 16.7947 19.8 15.408 19.8 13.872C19.8427 12.2933 19.9067 10.7147 19.992 9.136C20.0773 7.55733 20.1627 6.10666 20.248 4.784C20.0347 5.21067 19.6933 5.85067 19.224 6.704C18.7547 7.55733 18.2213 8.496 17.624 9.52C17.0267 10.5013 16.4507 11.4613 15.896 12.4C15.3413 13.296 14.872 14.0427 14.488 14.64L4.696 29.872Z" fill="black" fill-opacity="0.5"/>
</svg>
