<svg width="22" height="22" viewBox="0 0 22 22" fill="none" xmlns="http://www.w3.org/2000/svg">
<path d="M11 6.59361C8.56152 6.59361 6.59355 8.56158 6.59355 11.0001C6.59355 13.4385 8.56152 15.4065 11 15.4065C13.4385 15.4065 15.4064 13.4385 15.4064 11.0001C15.4064 8.56158 13.4385 6.59361 11 6.59361ZM11 13.8639C9.42305 13.8639 8.13613 12.577 8.13613 11.0001C8.13613 9.4231 9.42305 8.13619 11 8.13619C12.577 8.13619 13.8639 9.4231 13.8639 11.0001C13.8639 12.577 12.577 13.8639 11 13.8639ZM15.5869 5.38619C15.0176 5.38619 14.5578 5.84595 14.5578 6.41529C14.5578 6.98462 15.0176 7.44439 15.5869 7.44439C16.1562 7.44439 16.616 6.98677 16.616 6.41529C16.6162 6.2801 16.5897 6.1462 16.538 6.02127C16.4864 5.89633 16.4106 5.78282 16.315 5.68722C16.2194 5.59163 16.1059 5.51583 15.9809 5.46418C15.856 5.41252 15.7221 5.38602 15.5869 5.38619ZM19.5895 11.0001C19.5895 9.81411 19.6002 8.63892 19.5336 7.45513C19.467 6.08013 19.1533 4.85982 18.1479 3.85435C17.1402 2.84673 15.9221 2.53521 14.5471 2.46861C13.3611 2.40201 12.1859 2.41275 11.0021 2.41275C9.81621 2.41275 8.64101 2.40201 7.45723 2.46861C6.08223 2.53521 4.86191 2.84888 3.85644 3.85435C2.84883 4.86197 2.5373 6.08013 2.4707 7.45513C2.4041 8.64107 2.41484 9.81626 2.41484 11.0001C2.41484 12.1838 2.4041 13.3612 2.4707 14.545C2.5373 15.92 2.85098 17.1403 3.85644 18.1458C4.86406 19.1534 6.08223 19.4649 7.45723 19.5315C8.64316 19.5981 9.81836 19.5874 11.0021 19.5874C12.1881 19.5874 13.3633 19.5981 14.5471 19.5315C15.9221 19.4649 17.1424 19.1512 18.1479 18.1458C19.1555 17.1381 19.467 15.92 19.5336 14.545C19.6023 13.3612 19.5895 12.186 19.5895 11.0001ZM17.6988 16.0661C17.542 16.4571 17.3529 16.7493 17.05 17.0501C16.7471 17.353 16.457 17.542 16.066 17.6989C14.9359 18.1479 12.2525 18.0469 11 18.0469C9.74746 18.0469 7.06191 18.1479 5.93183 17.701C5.54082 17.5442 5.24863 17.3551 4.94785 17.0522C4.64492 16.7493 4.45586 16.4592 4.29902 16.0682C3.85215 14.936 3.95312 12.2526 3.95312 11.0001C3.95312 9.74751 3.85215 7.06197 4.29902 5.93189C4.45586 5.54087 4.64492 5.24869 4.94785 4.9479C5.25078 4.64712 5.54082 4.45591 5.93183 4.29908C7.06191 3.8522 9.74746 3.95318 11 3.95318C12.2525 3.95318 14.9381 3.8522 16.0682 4.29908C16.4592 4.45591 16.7514 4.64497 17.0521 4.9479C17.3551 5.25083 17.5441 5.54087 17.701 5.93189C18.1479 7.06197 18.0469 9.74751 18.0469 11.0001C18.0469 12.2526 18.1479 14.936 17.6988 16.0661Z" fill="black"/>
</svg>
