<svg width="0" height="0" class="hidden">
  <symbol fill="none" xmlns="http://www.w3.org/2000/svg" viewBox="0 0 30 48" id="3">
    <path d="M12.808 47.64c-4.224 0-7.296-.704-9.216-2.112-1.92-1.45-2.88-3.115-2.88-4.992 0-1.28.363-2.283 1.088-3.008.768-.725 1.75-1.088 2.944-1.088 0 2.219.704 4.075 2.112 5.568 1.408 1.45 3.413 2.176 6.016 2.176 1.707 0 3.264-.32 4.672-.96 1.45-.683 2.624-1.77 3.52-3.264.896-1.493 1.344-3.52 1.344-6.08 0-2.688-1.045-4.843-3.136-6.464-2.048-1.621-4.864-2.432-8.448-2.432H8.776V21.72h2.048c1.877 0 3.563-.405 5.056-1.216a9.171 9.171 0 003.648-3.456c.896-1.493 1.344-3.243 1.344-5.248 0-2.517-.533-4.459-1.6-5.824-1.024-1.408-2.773-2.112-5.248-2.112-1.92 0-3.392.448-4.416 1.344-1.024.896-1.728 2.07-2.112 3.52-.341 1.408-.512 2.965-.512 4.672-1.536 0-2.837-.277-3.904-.832-1.067-.597-1.6-1.707-1.6-3.328 0-2.475 1.045-4.523 3.136-6.144C6.749 1.475 9.886.664 14.024.664c4.053 0 7.296.896 9.728 2.688 2.475 1.75 3.712 4.245 3.712 7.488 0 1.92-.448 3.69-1.344 5.312-.896 1.579-2.112 2.944-3.648 4.096-1.536 1.11-3.285 1.899-5.248 2.368 1.195.128 2.475.405 3.84.832a12.298 12.298 0 013.84 1.856c1.237.853 2.24 1.984 3.008 3.392.768 1.365 1.152 3.115 1.152 5.248 0 2.56-.49 4.736-1.472 6.528-.981 1.75-2.283 3.157-3.904 4.224a17.78 17.78 0 01-5.312 2.24c-1.877.47-3.733.704-5.568.704z" fill="#000" fill-opacity=".5"></path>
  </symbol>
  <symbol fill="none" xmlns="http://www.w3.org/2000/svg" viewBox="0 0 34 46" id="4">
    <path d="M12.76 46v-2.688h1.792c1.45 0 2.688-.256 3.712-.768 1.024-.555 1.536-1.835 1.536-3.84v-5.248H.088v-2.624L19.864.304h6.08v29.568h7.936v3.584h-7.936v5.248c0 2.005.512 3.285 1.536 3.84 1.024.512 2.261.768 3.712.768h.832V46H12.76zM4.696 29.872H19.8v-16c.043-1.579.107-3.157.192-4.736.085-1.579.17-3.03.256-4.352a61.039 61.039 0 01-1.024 1.92 134.45 134.45 0 01-1.6 2.816c-.597.981-1.173 1.941-1.728 2.88a161.12 161.12 0 01-1.408 2.24L4.696 29.872z" fill="#000" fill-opacity=".5"></path>
  </symbol>
  <symbol fill="none" xmlns="http://www.w3.org/2000/svg" viewBox="0 0 27 46" id="1">
    <path d="M2.144 46v-2.688h4.288c1.45 0 2.688-.256 3.712-.768 1.024-.555 1.536-1.835 1.536-3.84v-33.6c-1.621 1.963-3.093 3.563-4.416 4.8-1.28 1.237-2.56 1.856-3.84 1.856-.939 0-1.707-.32-2.304-.96-.597-.64-.896-1.472-.896-2.496 1.28-.341 2.624-.853 4.032-1.536 1.45-.683 3.221-1.813 5.312-3.392l4.48-3.328h4.096v38.656c0 2.005.512 3.285 1.536 3.84 1.024.512 2.261.768 3.712.768h3.136V46H2.144z" fill="#000" fill-opacity=".5"></path>
  </symbol>
  <symbol fill="none" xmlns="http://www.w3.org/2000/svg" viewBox="0 0 29 47" id="2">
    <path d="M.264 47v-4.672l10.688-12.352c2.261-2.645 4.053-4.928 5.376-6.848 1.323-1.963 2.261-3.819 2.816-5.568.597-1.75.896-3.605.896-5.568 0-2.432-.533-4.395-1.6-5.888-1.024-1.493-2.667-2.24-4.928-2.24-1.92 0-3.392.448-4.416 1.344-1.024.896-1.728 2.07-2.112 3.52-.341 1.408-.512 2.965-.512 4.672-1.536 0-2.837-.277-3.904-.832-1.067-.597-1.6-1.707-1.6-3.328 0-2.475 1.045-4.523 3.136-6.144C6.237 1.475 9.374.664 13.512.664c4.053 0 7.232.981 9.536 2.944 2.304 1.92 3.456 4.501 3.456 7.744 0 2.987-.939 5.91-2.816 8.768-1.877 2.816-4.501 6.08-7.872 9.792L5 41.88h14.784c1.92 0 3.221-.49 3.904-1.472a9.79 9.79 0 001.472-3.328l.256-1.152h2.688L27.784 47H.264z" fill="#000" fill-opacity=".5"></path>
  </symbol>
   <symbol fill="none" xmlns="http://www.w3.org/2000/svg" viewBox="0 0 19 19" id="wu">
    <path fill-rule="evenodd" clip-rule="evenodd" d="M15.403 2.633A8.918 8.918 0 009.053 0C4.105 0 .077 4.027.075 8.977c0 1.582.413 3.126 1.198 4.488L0 18.116l4.759-1.249a8.98 8.98 0 004.29 1.093h.004c4.947 0 8.975-4.027 8.977-8.977a8.926 8.926 0 00-2.627-6.35zm-6.35 13.812H9.05a7.445 7.445 0 01-3.798-1.041l-.272-.162-2.824.741.753-2.753-.177-.282a7.448 7.448 0 01-1.141-3.971c.002-4.114 3.349-7.461 7.465-7.461a7.413 7.413 0 015.275 2.188 7.42 7.42 0 012.183 5.279c-.002 4.114-3.349 7.462-7.461 7.462zm4.093-5.589c-.225-.113-1.327-.655-1.533-.73-.205-.075-.354-.112-.504.112-.15.224-.58.729-.711.879-.131.15-.262.168-.486.056-.224-.112-.947-.349-1.804-1.113-.667-.595-1.117-1.329-1.248-1.554-.131-.225-.014-.346.099-.458.101-.1.224-.262.336-.393.112-.131.149-.224.224-.374.075-.15.038-.281-.019-.393-.056-.113-.505-1.217-.692-1.666-.181-.435-.366-.377-.504-.383a9.649 9.649 0 00-.429-.008.826.826 0 00-.599.28c-.206.225-.785.767-.785 1.871s.804 2.171.916 2.321c.112.15 1.582 2.415 3.832 3.387.536.231.954.369 1.279.473.537.171 1.026.146 1.413.089.431-.064 1.327-.542 1.514-1.066.187-.524.187-.973.131-1.067-.056-.094-.207-.151-.43-.263z" fill="#000"></path>
  </symbol>
  <symbol fill="none" xmlns="http://www.w3.org/2000/svg" viewBox="0 0 22 22" id="inst">
    <path d="M11 6.594A4.4 4.4 0 006.594 11 4.4 4.4 0 0011 15.406 4.4 4.4 0 0015.406 11 4.4 4.4 0 0011 6.594zm0 7.27A2.87 2.87 0 018.136 11 2.87 2.87 0 0111 8.136 2.87 2.87 0 0113.864 11 2.87 2.87 0 0111 13.864zm4.587-8.478a1.028 1.028 0 100 2.058 1.027 1.027 0 00.951-1.423 1.027 1.027 0 00-.951-.635zM19.59 11c0-1.186.01-2.361-.056-3.545-.067-1.375-.38-2.595-1.386-3.6-1.008-1.008-2.226-1.32-3.6-1.386-1.187-.067-2.362-.056-3.546-.056-1.186 0-2.361-.011-3.545.056-1.375.066-2.595.38-3.6 1.385C2.848 4.862 2.536 6.08 2.47 7.455 2.404 8.641 2.415 9.816 2.415 11c0 1.184-.01 2.361.056 3.545.066 1.375.38 2.595 1.385 3.6 1.008 1.008 2.226 1.32 3.601 1.387 1.186.066 2.361.055 3.545.055 1.186 0 2.361.011 3.545-.055 1.375-.067 2.595-.38 3.6-1.386 1.009-1.008 1.32-2.226 1.387-3.601.068-1.184.056-2.359.056-3.545zm-1.891 5.066a2.73 2.73 0 01-.649.984 2.75 2.75 0 01-.984.649c-1.13.449-3.813.348-5.066.348-1.253 0-3.938.1-5.068-.346a2.73 2.73 0 01-.984-.649 2.749 2.749 0 01-.649-.984c-.447-1.132-.346-3.815-.346-5.068 0-1.252-.1-3.938.346-5.068a2.73 2.73 0 01.649-.984c.303-.3.593-.492.984-.649 1.13-.447 3.815-.346 5.068-.346 1.252 0 3.938-.1 5.068.346.391.157.683.346.984.649.303.303.492.593.649.984.447 1.13.346 3.816.346 5.068 0 1.253.1 3.936-.348 5.066z" fill="#000"></path>
  </symbol>
   <symbol fill="none" xmlns="http://www.w3.org/2000/svg" viewBox="0 0 22 27" id="arrowUp">
    <path d="M11 26.5V1m0 0L1 11M11 1l10 10" stroke="#000000"></path>
  </symbol>
</svg>